<?xml version="1.0" encoding="UTF-8"?>
<svg width="900" height="600" viewBox="0 0 900 600" fill="none" xmlns="http://www.w3.org/2000/svg">
  <defs>
    <linearGradient id="g1" x1="0" y1="0" x2="1" y2="1">
      <stop offset="0%" stop-color="#F2C27B"/>
      <stop offset="50%" stop-color="#FFC98F"/>
      <stop offset="100%" stop-color="#FFEECC"/>
    </linearGradient>
    <linearGradient id="g2" x1="1" y1="0" x2="0" y2="1">
      <stop offset="0%" stop-color="#365562"/>
      <stop offset="100%" stop-color="#5A7990"/>
    </linearGradient>
    <filter id="blur1" x="-20%" y="-20%" width="140%" height="140%">
      <feGaussianBlur in="SourceGraphic" stdDeviation="24"/>
    </filter>
  </defs>
  <!-- blob principal -->
  <path d="M667 139c77 54 137 154 104 233-33 79-162 135-279 150-117 15-221-11-277-67-56-56-65-142-25-210 40-68 127-118 214-132 87-14 186-27 263 26z" fill="url(#g1)"/>
  <!-- glow azul -->
  <circle cx="620" cy="210" r="120" fill="url(#g2)" opacity="0.18" filter="url(#blur1)"/>
  <!-- formas decorativas -->
  <g opacity="0.5">
    <circle cx="180" cy="360" r="10" fill="#365562"/>
    <circle cx="210" cy="380" r="6" fill="#C29D67"/>
    <rect x="740" y="120" width="16" height="16" rx="8" fill="#365562"/>
    <rect x="760" y="136" width="10" height="10" rx="5" fill="#C29D67"/>
  </g>
</svg>
